<svg width="383" height="97" viewBox="0 0 383 97" fill="none" xmlns="http://www.w3.org/2000/svg">
<path d="M41.3467 0H330.607L381.47 37.206L0.579712 36.2985L41.3467 0Z" fill="#666666"/>
<path d="M375.837 35.26H6.2125C2.78143 35.26 0 38.0414 0 41.4725V90.5505C0 93.9816 2.78143 96.763 6.2125 96.763H375.837C379.269 96.763 382.05 93.9816 382.05 90.5505V41.4725C382.05 38.0414 379.269 35.26 375.837 35.26Z" fill="#808080"/>
<path d="M369.441 42.981H14.1526C11.6697 42.981 9.65698 44.9937 9.65698 47.4766V82.9914C9.65698 85.4742 11.6697 87.487 14.1526 87.487H369.441C371.924 87.487 373.937 85.4742 373.937 82.9914V47.4766C373.937 44.9937 371.924 42.981 369.441 42.981Z" fill="#333333"/>
<path d="M185.616 74.3748C185.616 75.3882 184.795 76.2097 183.781 76.2097C182.768 76.2097 181.946 75.3882 181.946 74.3748C181.946 73.3614 182.768 72.5399 183.781 72.5399C184.795 72.5399 185.616 73.3614 185.616 74.3748Z" fill="#008000"/>
<path d="M200.159 74.3748C200.159 75.3882 199.338 76.2097 198.324 76.2097C197.311 76.2097 196.49 75.3882 196.49 74.3748C196.49 73.3614 197.311 72.5399 198.324 72.5399C199.338 72.5399 200.159 73.3614 200.159 74.3748Z" fill="#008000"/>
<path d="M214.702 74.3748C214.702 75.3882 213.881 76.2097 212.867 76.2097C211.854 76.2097 211.032 75.3882 211.032 74.3748C211.032 73.3614 211.854 72.5399 212.867 72.5399C213.881 72.5399 214.702 73.3614 214.702 74.3748Z" fill="#008000"/>
<path d="M229.244 74.3748C229.244 75.3882 228.423 76.2097 227.409 76.2097C226.396 76.2097 225.574 75.3882 225.574 74.3748C225.574 73.3614 226.396 72.5399 227.409 72.5399C228.423 72.5399 229.244 73.3614 229.244 74.3748Z" fill="#008000"/>
<path d="M243.784 74.3748C243.784 75.3882 242.963 76.2097 241.949 76.2097C240.936 76.2097 240.115 75.3882 240.115 74.3748C240.115 73.3614 240.936 72.5399 241.949 72.5399C242.963 72.5399 243.784 73.3614 243.784 74.3748Z" fill="#008000"/>
<path d="M258.334 74.3748C258.334 75.3882 257.513 76.2097 256.499 76.2097C255.486 76.2097 254.664 75.3882 254.664 74.3748C254.664 73.3614 255.486 72.5399 256.499 72.5399C257.513 72.5399 258.334 73.3614 258.334 74.3748Z" fill="#008000"/>
<path d="M272.874 74.3748C272.874 75.3882 272.053 76.2097 271.039 76.2097C270.026 76.2097 269.204 75.3882 269.204 74.3748C269.204 73.3614 270.026 72.5399 271.039 72.5399C272.053 72.5399 272.874 73.3614 272.874 74.3748Z" fill="#008000"/>
<path d="M287.414 74.3748C287.414 75.3882 286.593 76.2097 285.579 76.2097C284.566 76.2097 283.745 75.3882 283.745 74.3748C283.745 73.3614 284.566 72.5399 285.579 72.5399C286.593 72.5399 287.414 73.3614 287.414 74.3748Z" fill="#008000"/>
<path d="M185.616 55.3876C185.616 56.401 184.794 57.2225 183.781 57.2225C182.767 57.2225 181.946 56.401 181.946 55.3876C181.946 54.3742 182.767 53.5527 183.781 53.5527C184.794 53.5527 185.616 54.3742 185.616 55.3876Z" fill="#C8AB37"/>
<path d="M200.159 55.3876C200.159 56.401 199.337 57.2225 198.324 57.2225C197.31 57.2225 196.489 56.401 196.489 55.3876C196.489 54.3742 197.31 53.5527 198.324 53.5527C199.337 53.5527 200.159 54.3742 200.159 55.3876Z" fill="#C8AB37"/>
<path d="M214.703 55.3876C214.703 56.401 213.881 57.2225 212.868 57.2225C211.854 57.2225 211.033 56.401 211.033 55.3876C211.033 54.3742 211.854 53.5527 212.868 53.5527C213.881 53.5527 214.703 54.3742 214.703 55.3876Z" fill="#C8AB37"/>
<path d="M229.242 55.3876C229.242 56.401 228.42 57.2225 227.407 57.2225C226.393 57.2225 225.572 56.401 225.572 55.3876C225.572 54.3742 226.393 53.5527 227.407 53.5527C228.42 53.5527 229.242 54.3742 229.242 55.3876Z" fill="#C8AB37"/>
<path d="M185.616 64.881C185.616 65.8944 184.795 66.7159 183.781 66.7159C182.768 66.7159 181.946 65.8944 181.946 64.881C181.946 63.8676 182.768 63.0461 183.781 63.0461C184.795 63.0461 185.616 63.8676 185.616 64.881Z" fill="#008000"/>
<path d="M200.159 64.881C200.159 65.8944 199.338 66.7159 198.324 66.7159C197.311 66.7159 196.49 65.8944 196.49 64.881C196.49 63.8676 197.311 63.0461 198.324 63.0461C199.338 63.0461 200.159 63.8676 200.159 64.881Z" fill="#008000"/>
<path d="M214.702 64.881C214.702 65.8944 213.881 66.7159 212.867 66.7159C211.854 66.7159 211.032 65.8944 211.032 64.881C211.032 63.8676 211.854 63.0461 212.867 63.0461C213.881 63.0461 214.702 63.8676 214.702 64.881Z" fill="#008000"/>
<path d="M229.244 64.881C229.244 65.8944 228.423 66.7159 227.409 66.7159C226.396 66.7159 225.574 65.8944 225.574 64.881C225.574 63.8676 226.396 63.0461 227.409 63.0461C228.423 63.0461 229.244 63.8676 229.244 64.881Z" fill="#008000"/>
<path d="M243.784 64.881C243.784 65.8944 242.963 66.7159 241.949 66.7159C240.936 66.7159 240.115 65.8944 240.115 64.881C240.115 63.8676 240.936 63.0461 241.949 63.0461C242.963 63.0461 243.784 63.8676 243.784 64.881Z" fill="#008000"/>
<path d="M258.334 64.881C258.334 65.8944 257.513 66.7159 256.499 66.7159C255.486 66.7159 254.664 65.8944 254.664 64.881C254.664 63.8676 255.486 63.0461 256.499 63.0461C257.513 63.0461 258.334 63.8676 258.334 64.881Z" fill="#008000"/>
<path d="M272.874 64.881C272.874 65.8944 272.053 66.7159 271.039 66.7159C270.026 66.7159 269.204 65.8944 269.204 64.881C269.204 63.8676 270.026 63.0461 271.039 63.0461C272.053 63.0461 272.874 63.8676 272.874 64.881Z" fill="#008000"/>
<path d="M287.414 64.881C287.414 65.8944 286.593 66.7159 285.579 66.7159C284.566 66.7159 283.745 65.8944 283.745 64.881C283.745 63.8676 284.566 63.0461 285.579 63.0461C286.593 63.0461 287.414 63.8676 287.414 64.881Z" fill="#008000"/>
</svg>
