<svg width="410" height="218" viewBox="0 0 410 218" fill="none" xmlns="http://www.w3.org/2000/svg">
<path d="M55.3583 67.4821V168.107H55.3896C55.5228 185.21 82.3241 201.846 130.202 211.013C201.761 224.715 293.263 216.558 334.577 192.826C348.167 185.019 354.627 176.517 354.64 168.107V67.7321C354.595 76.1217 348.133 84.6013 334.577 92.3884C293.263 116.12 201.761 124.246 130.202 110.545C82.153 101.345 55.3317 84.6496 55.3896 67.4821H55.3583Z" fill="url(#paint0_linear_1519_51)"/>
<path d="M334.584 92.753C324.763 98.3974 311.685 103.345 296.097 107.313C280.509 111.281 262.718 114.192 243.738 115.879C224.758 117.566 204.961 117.997 185.479 117.147C165.997 116.297 147.211 114.182 130.193 110.923C113.176 107.665 98.2606 103.327 86.2992 98.1565C74.3378 92.9862 65.5647 87.0851 60.4808 80.7902C55.397 74.4953 54.102 67.9299 56.6699 61.469C59.2378 55.0081 65.6183 48.7782 75.4469 43.1352C85.2684 37.4908 98.3464 32.5433 113.934 28.5753C129.521 24.6074 147.313 21.6966 166.293 20.0093C185.273 18.3219 205.07 17.8911 224.552 18.7414C244.034 19.5916 262.82 21.7063 279.838 24.9647C296.855 28.2231 311.77 32.5613 323.732 37.7317C335.693 42.902 344.466 48.8031 349.55 55.098C354.634 61.3929 355.929 67.9583 353.361 74.4192C350.793 80.8801 344.413 87.11 334.584 92.753Z" fill="blue"/>
<path fill-rule="evenodd" clip-rule="evenodd" d="M284.943 64.0661L266.159 74.856L332.74 87.6046L320.217 94.7979L253.636 82.0493L234.852 92.8392L222.367 71.2665L284.943 64.0661Z" fill="white"/>
<path fill-rule="evenodd" clip-rule="evenodd" d="M175.178 43.049L156.394 53.8389L89.8127 41.0905L77.29 48.2838L143.871 61.0322L125.087 71.8221L187.663 64.6217L175.178 43.049Z" fill="white"/>
<path fill-rule="evenodd" clip-rule="evenodd" d="M191.26 102.425L165.232 97.441L203.673 75.3599L186.321 72.0375L147.88 94.1187L121.852 89.1349L134.888 108.227L191.26 102.425Z" fill="white"/>
<path fill-rule="evenodd" clip-rule="evenodd" d="M288.176 46.7538L262.148 41.7702L223.709 63.8507L206.357 60.5283L244.797 38.4478L218.769 33.4641L275.142 27.6617L288.176 46.7538Z" fill="white"/>
<defs>
<linearGradient id="paint0_linear_1519_51" x1="55.3583" y1="142.572" x2="354.64" y2="142.572" gradientUnits="userSpaceOnUse">
<stop stop-color="blue"/>
<stop offset="1" stop-color="blue"/>
</linearGradient>
</defs>
</svg>
