<svg width="29" height="29" viewBox="0 0 29 29" fill="none" xmlns="http://www.w3.org/2000/svg">
<path d="M6.7955 10.7432H8.29058C8.7786 10.7432 9.11547 10.1431 8.94925 9.56962C8.73073 8.8172 8.6146 8.01936 8.6146 7.19713C8.6146 6.37489 8.73073 5.57704 8.94925 4.82461C9.11591 4.25117 8.7786 3.65112 8.29058 3.65112H6.7955C6.48478 3.65112 6.19889 3.89993 6.11246 4.27332C5.89571 5.21414 5.77869 6.19317 5.77869 7.19713C5.77869 8.2011 5.89571 9.18013 6.1129 10.1204C6.19889 10.4938 6.48478 10.7432 6.7955 10.7432ZM4.0908 1.39828C4.34079 0.80988 4.00436 0.105103 3.47202 0.105103H1.90602C1.62811 0.105103 1.36792 0.303914 1.25267 0.620926C0.521757 2.62829 0.105103 4.85068 0.105103 7.19713C0.105103 8.56844 0.243396 10.9831 1.28813 13.7827C1.40427 14.0947 1.66135 14.2892 1.93572 14.2892H3.48C4.01278 14.2892 4.34921 13.5833 4.09833 12.9943C1.89184 7.82376 3.35767 3.12364 4.0908 1.39828ZM27.3232 0.619839C27.208 0.303442 26.9483 0.105103 26.6703 0.105103H25.1004C24.5693 0.105103 24.2289 0.806524 24.4789 1.39331C25.2887 3.29316 26.6251 8.00995 24.4914 12.986C24.2379 13.5777 24.5712 14.2892 25.108 14.2892H26.6696C26.9475 14.2892 27.2072 14.0908 27.3225 13.7744C28.0551 11.7671 28.473 9.54416 28.473 7.19713C28.473 4.85011 28.0555 2.6272 27.3232 0.619839ZM21.7826 3.65112H20.2876C19.7995 3.65112 19.4627 4.25117 19.6289 4.82461C19.8474 5.57704 19.9635 6.37489 19.9635 7.19713C19.9635 8.01936 19.8474 8.8172 19.6289 9.56962C19.4622 10.1431 19.7995 10.7432 20.2876 10.7432H21.7826C22.0938 10.7432 22.3792 10.4943 22.4657 10.1204C22.6829 9.18013 22.7994 8.2011 22.7994 7.19713C22.7994 6.19317 22.6824 5.21415 22.4652 4.27389C22.3793 3.89991 22.0934 3.65112 21.7826 3.65112ZM16.6277 9.19842C16.9401 8.62827 17.1241 7.94014 17.1241 7.19713C17.1241 5.23852 15.8551 3.65112 14.2891 3.65112C12.7235 3.65112 11.454 5.23852 11.454 7.19713C11.454 7.94014 11.638 8.62827 11.9505 9.19842L6.16609 26.5634C6.01538 27.0149 6.18647 27.5341 6.54773 27.7225L7.85575 28.4045C8.217 28.5929 8.63233 28.378 8.78259 27.9275L10.9629 21.3812H17.6148L19.7955 27.9275C19.9463 28.3796 20.3611 28.5929 20.7224 28.4045L22.0304 27.7225C22.3917 27.5343 22.5623 27.0149 22.412 26.5634L16.6277 9.19842ZM12.1446 17.8352L14.2891 11.3975L16.4335 17.8352H12.1446Z" fill="yellow" />
</svg>
